# 3ds Max Wavefront OBJ Exporter v0.97b - (c)2007 guruware
# File Created: 13.02.2018 00:11:34

mtllib 401_785_91_fondo piatto.mtl

#
# object Box001
#

v  -30.0000 -17.5000 -0.0000
v  -30.0000 4.9500 -0.0000
v  30.0000 4.9500 -0.0000
v  30.0000 -17.5000 -0.0000
v  -30.0000 -17.5000 1.0000
v  30.0000 -17.5000 1.0000
v  30.0000 4.9500 1.0000
v  -30.0000 4.9500 1.0000
v  30.0000 17.5000 0.0000
v  -30.0000 17.5000 0.0000
v  -30.0000 17.5000 1.0000
v  30.0000 17.5000 1.0000
v  -30.0000 5.0000 -0.0000
v  -30.0000 5.0000 1.0000
v  30.0000 5.0000 -0.0000
v  30.0000 5.0000 1.0000
# 16 vertices

vn -0.5774 -0.5774 -0.5774
vn -0.7071 0.0000 -0.7071
vn 0.7071 0.0000 -0.7071
vn 0.5774 -0.5774 -0.5774
vn -0.5774 -0.5774 0.5774
vn 0.5774 -0.5774 0.5774
vn 0.7071 -0.0000 0.7071
vn -0.7071 -0.0000 0.7071
vn 0.5774 0.5774 -0.5774
vn -0.5774 0.5774 -0.5774
vn -0.5774 0.5774 0.5774
vn 0.5774 0.5774 0.5774
# 12 vertex normals

vt 1.0000 0.0000 0.0000
vt 1.0000 0.2500 0.0000
vt 0.0000 0.2500 0.0000
vt 0.0000 0.0000 0.0000
vt 1.0000 1.0000 0.0000
vt 0.0000 1.0000 0.0000
vt 0.2500 0.0000 0.0000
vt 0.2500 1.0000 0.0000
vt 0.5000 0.0000 0.0000
vt 0.5000 1.0000 0.0000
vt 1.0000 0.5000 0.0000
vt 0.0000 0.5000 0.0000
vt 0.7500 0.0000 0.0000
vt 0.7500 1.0000 0.0000
# 14 texture coords

o Box001
g Box001
usemtl wire_115115115
s 2
f 1/1/1 2/2/2 3/3/3 4/4/4 
s 4
f 5/4/5 6/1/6 7/2/7 8/3/8 
s 8
f 1/4/1 4/1/4 6/5/6 5/6/5 
s 16
f 4/4/4 3/7/3 7/8/7 6/6/6 
s 32
f 9/4/9 10/1/10 11/5/11 12/6/12 
s 64
f 10/4/10 13/9/2 14/10/8 11/6/11 
s 2
f 13/11/2 10/5/10 9/6/9 15/12/3 
s 4
f 16/11/7 12/5/12 11/6/11 14/12/8 
s 16
f 15/9/3 9/1/9 12/5/12 16/10/7 
s 64
f 13/9/2 2/13/2 8/14/8 14/10/8 
s 2
f 2/2/2 13/11/2 15/12/3 3/3/3 
s 4
f 7/2/7 16/11/7 14/12/8 8/3/8 
s 16
f 3/7/3 15/9/3 16/10/7 7/8/7 
s 64
f 2/13/2 1/1/1 5/5/5 8/14/8 
# 14 polygons

